<?xml version="1.0" encoding="utf-8"?>
<!-- Generator: Adobe Illustrator 24.3.0, SVG Export Plug-In . SVG Version: 6.00 Build 0)  -->
<svg version="1.1" id="Layer_1" xmlns="http://www.w3.org/2000/svg" xmlns:xlink="http://www.w3.org/1999/xlink" x="0px" y="0px"
	 viewBox="0 0 1366 768" style="enable-background:new 0 0 1366 768;" xml:space="preserve">
<style type="text/css">
	.st0{fill:none;}
	.st1{fill:#00427E;}
	.st2{opacity:0.4;fill:#9DDCF9;}
	.st3{fill:url(#Jive);}
	.st4{fill:#FFFFFF;}
	.st5{font-family:'Arial-Black';}
	.st6{font-size:97px;}
	.st7{fill:#0071BC;}
</style>
<pattern  width="108.34" height="109.64" patternUnits="userSpaceOnUse" id="Jive" viewBox="47.56 -219.28 108.34 109.64" style="overflow:visible;">
	<g>
		<rect x="47.56" y="-219.28" class="st0" width="108.34" height="109.64"/>
		<g>
			<path class="st1" d="M135.03-74.95c0.02-0.12,0.12-0.21,0.25-0.21c12.91-0.13,24.75-3.27,33.97-11.51
				c-8.03,5.56-22.94,7.51-31.53,3.62c-0.11-0.05-0.17-0.17-0.14-0.29c0.03-0.12,0.13-0.2,0.25-0.2
				c10.68,0.29,19.28-3.01,25.98-8.96c-6.87-0.42-12.57-4.74-12.56-9.84c0-0.12,0.08-0.22,0.2-0.25c0.12-0.03,0.23,0.04,0.28,0.14
				c1.12,2.49,4.75,3.78,8.58,2.88c4.18-0.98,7-4.19,6.3-7.17c-0.47-2.01-2.44-3.4-4.95-3.79c-0.13-0.02-0.22-0.13-0.22-0.26
				c0-0.13,0.1-0.23,0.23-0.25c1.07-0.1,2.18-0.11,3.32,0c6.49,0.62,11.51,4.6,11.95,9.18c4.71-0.55,8.88-3.16,10.38-6.77
				c0.04-0.11,0.16-0.17,0.28-0.15c0.12,0.02,0.2,0.11,0.21,0.23c0.38,4.75-1.26,7.84-4.97,10.85c5.38-2.06,11.45-2.17,17.26,0.54
				c0.11,0.05,0.16,0.16,0.14,0.28c-0.02,0.12-0.12,0.2-0.24,0.2c-4.88,0.19-8.42,1.76-11.73,5.07c18.25-5.13,33.09,6.2,27.95,23.05
				c-0.04,0.12-0.15,0.19-0.27,0.18c-0.12-0.01-0.22-0.11-0.23-0.23c-0.92-9.71-7.7-16.12-17.86-17.08
				c5.39,2.06,11,6.98,11.56,15.53c0.01,0.12-0.07,0.23-0.19,0.26c-0.12,0.03-0.24-0.03-0.29-0.14c-2.8-6.15-8.3-9.27-14.16-9.81
				c6.33,2.58,10.4,8.6,11.57,16.42c0.02,0.12-0.05,0.24-0.17,0.28c-0.12,0.04-0.25-0.02-0.3-0.12
				c-3.87-7.58-12.16-12.79-22.45-8.81c-10.62,4.11-15.27,16.39-16.3,25.04c-0.02,0.12-0.12,0.21-0.24,0.22
				c-0.12,0.01-0.23-0.07-0.26-0.2c-3.72-15.69,3.58-31.95,16.64-38.84c-7.1,2-13.44,6.26-17.03,13.35
				c-8.29,1.02-14,3.86-16.86,9.24c-0.06,0.11-0.18,0.16-0.29,0.12c-0.12-0.03-0.19-0.14-0.18-0.27c0.18-2.11,0.94-6.33,4.07-8.27
				c-6.96,0.01-12.51-0.89-17.8-3.01C135.08-74.71,135.01-74.83,135.03-74.95z M164.52-21.47c-0.1-0.07-0.23-0.05-0.32,0.03
				c-0.09,0.08-0.1,0.21-0.04,0.31c1.62,2.8,0.14,6.81-3.05,6.81c-5.72,0-8.47-10.77-7.6-20.59c2.16,5.76,4.03,8.05,7.35,10.79
				c0.09,0.08,0.23,0.08,0.32,0c0.09-0.08,0.12-0.21,0.06-0.32c-4.86-9.08-5.9-16.07-5.9-24.09c1.46,5.96,3.2,9.32,8.13,14.38
				c0.09,0.09,0.22,0.1,0.32,0.03c0.1-0.07,0.14-0.2,0.09-0.32c-5.3-11.59-4.89-24.45-0.95-34.26c0.04-0.1,0.01-0.21-0.06-0.28
				c-0.08-0.07-0.19-0.09-0.29-0.04c-5.21,2.55-8.26,4.23-12.75,10.39c1.36,7.4,0.23,11.05-3.17,17.2
				c3.94-9.92,1.84-23.89-8.19-29.59c-0.11-0.06-0.25-0.03-0.32,0.06c-0.08,0.1-0.07,0.24,0.02,0.33
				c3.78,3.96,6.53,10.63,4.16,17.93c1.53-10.39-7.6-19.12-17.78-19.12c-9.6,0-16.15,7.51-15.61,14.94
				c0.54,7.37,5.44,10.97,9.67,12.5c0.11,0.04,0.24,0,0.3-0.1c0.06-0.1,0.05-0.23-0.03-0.32c-5.61-5.69-6.38-16.49,3.58-19.76
				c-5.86,5.06-3.69,16.83,5.69,17.72c0.12,0.01,0.23-0.06,0.26-0.17c0.04-0.11,0-0.23-0.1-0.3c-2.01-1.28-3.68-3.77-3.68-6.57
				c0-4.67,3.42-6.51,5.68-6.51c3.42,0,6.26,3.26,6.26,8.18c0,5.84-5.26,10.68-12.02,11.44c-6.63,0.73-12.78-2.15-15.75-6.46
				c-0.07-0.1-0.2-0.14-0.31-0.09c-0.11,0.05-0.17,0.18-0.14,0.29c3.02,11.7,16.8,16.88,26.89,9.51c-6.61,7.5-17.01,7.61-25.72-0.09
				c-0.09-0.08-0.23-0.08-0.32-0.01c-0.1,0.07-0.13,0.21-0.07,0.31c2.67,5.41,9.25,11.82,18.61,10.88
				c8.56-0.86,13.52-9.01,14.52-15.69c0.56,8.52-1.39,14.54-8.75,20.15c-0.1,0.07-0.13,0.21-0.07,0.32c0.05,0.11,0.18,0.16,0.3,0.13
				c6.79-1.96,12.23-5.43,15.05-12.54c0,6.16-2.14,12.37-7.53,16.51c-0.1,0.07-0.13,0.21-0.07,0.31s0.18,0.16,0.3,0.13
				c3.45-0.98,6.17-2.49,8.14-5.19c1.31,11.1,6.52,17.69,12.52,17.69c4.12,0,7.21-3.03,7.21-7.87
				C169.33-15.29,167.84-19.26,164.52-21.47z M263.75-113.09c-3.16-3.9-9.54-5.39-16.43-3.99c0.51-4.3-0.33-8.79-1.61-11.48
				c-0.05-0.11-0.17-0.17-0.29-0.14c-0.12,0.03-0.2,0.14-0.19,0.26c0.38,8.77-4.62,15.84-13.45,18.91
				c6.91-4.76,8.93-14.19,5.64-19.07c-0.07-0.1-0.2-0.14-0.31-0.09c-0.11,0.04-0.18,0.16-0.15,0.28c0.37,2.06-0.61,4.68-2.71,6.73
				c-2.91,2.81-6.85,3.45-8.81,1.43c-1.96-2.03-1.2-5.95,1.71-8.76c1.06-1.03,2.26-1.76,3.45-2.18c0.11-0.04,0.18-0.15,0.17-0.27
				c-0.01-0.12-0.11-0.21-0.23-0.22c-6.39-0.55-10.77,3.25-13.52,7.88c-2.79,4.71-7.57,8.41-13.21,7.67
				c-0.12-0.02-0.23,0.05-0.27,0.17c-0.04,0.11,0.01,0.24,0.11,0.3c2.8,1.68,5.87,2.38,9.86,1.05c-5.79,4.91-14.05,7.74-21.84,5.23
				c-0.11-0.04-0.23,0.01-0.29,0.1c-0.06,0.1-0.05,0.22,0.03,0.31c5.91,6.56,17.69,6.7,25.11,1.37c-3.04,4.32-7.07,7.48-14.29,8.48
				c-0.12,0.02-0.21,0.11-0.22,0.22c-0.01,0.12,0.05,0.23,0.16,0.27c8.29,3.08,16.6-0.04,23.45-8.21
				c-2.99,6.38-7.91,11.48-14.77,14.01c-0.12,0.04-0.18,0.16-0.16,0.28c0.02,0.12,0.12,0.21,0.24,0.21
				c3.94,0.08,7.49-0.86,12.27-3.57c-3.51,5.69-2.74,15.64,2.37,22.26c0.07,0.09,0.2,0.12,0.3,0.08c0.11-0.05,0.17-0.16,0.15-0.27
				c-1.18-7.2,1.3-15.33,5.61-19.64c-2.15,7.63-0.01,14.58,5.9,19.64c0.07,0.06,0.17,0.08,0.26,0.04c0.09-0.03,0.15-0.11,0.16-0.2
				c1.23-9.42,11.77-18.97,20.6-19.78c0.12-0.01,0.22-0.11,0.23-0.24c0.01-0.12-0.07-0.24-0.2-0.26c-4.28-0.97-8.69-0.49-12.39,1.03
				c2.66-2.93,5.94-5.11,9.56-6.25c0.12-0.04,0.19-0.15,0.18-0.27c-0.01-0.12-0.11-0.21-0.23-0.22c-4.51-0.31-8.92,1.01-12.73,3.54
				c4.36-6.62,10.98-11.54,19.43-13.51c0.12-0.03,0.2-0.14,0.2-0.26c-0.01-0.12-0.1-0.22-0.23-0.24
				c-11.92-1.3-21.75,3.32-28.22,11.92c1.65-4.9,6.37-9.76,12.95-12.62c5.85-2.55,11.85-2.95,16.42-1.51
				c0.11,0.03,0.22-0.01,0.29-0.1C263.82-112.88,263.82-113.01,263.75-113.09z M210.84-37.52c4.81-10.49,4.46-18.69,0.59-29.05
				c-0.04-0.12-0.17-0.18-0.29-0.16c-0.12,0.03-0.21,0.14-0.2,0.26c0.62,12.62-2.83,21.65-10.3,27.81
				c8.25-9.85,4.35-29.56-8.82-29.56c-9.59,0-17.52,7.98-19.46,17.52c-0.03,0.12,0.04,0.24,0.16,0.29c0.12,0.04,0.25,0,0.31-0.11
				c2.84-4.76,7.41-7.85,12.46-7.85c8.13,0,10.54,6.47,10.54,11c0,6.19-4.93,11.34-8.71,11.34c-3.44,0-5.04-2.82-5.04-4.93
				c0-3.9,3-7.17,6.38-8.16c0.12-0.04,0.2-0.15,0.18-0.28c-0.02-0.12-0.12-0.22-0.25-0.22c-4.11-0.03-7.58,1.86-9.63,5.57
				c-0.27-2.88-0.27-4.69,0.64-7.72c0.04-0.12-0.02-0.24-0.12-0.3c-0.11-0.06-0.24-0.03-0.32,0.07c-7.36,9.39-3.84,25.63,1.98,32.36
				c-5.53-3.98-10.42-12.63-10.34-24.39c0-0.12-0.08-0.23-0.21-0.25c-0.12-0.03-0.24,0.04-0.28,0.15
				c-4.11,10.25-1.93,29.25,9.28,39.85c-2.88,0.4-5.87,0.35-9.12-0.69c-0.12-0.04-0.24,0.01-0.3,0.12
				c-0.06,0.11-0.04,0.24,0.06,0.32C174.12-1.09,179.84,0,185.29,0c-4.7-5.5-3.14-16.55,4.36-16.55c5.35,0,7.78,8.3,3.65,12.78
				c-0.08,0.09-0.09,0.21-0.03,0.31c0.06,0.1,0.19,0.14,0.3,0.1c4.78-1.65,9.95-5.79,9.95-11.02c0-5.04-4.81-9.39-11.8-9.05
				c8.82-2.51,18.05,0.27,22.88,6.25c0.07,0.09,0.21,0.12,0.31,0.07c0.11-0.05,0.16-0.18,0.13-0.29
				c-2.79-10.72-11.97-15.2-23.44-13.71c9.28-3.76,23.25-0.48,29.42,7.31c0.07,0.09,0.2,0.12,0.31,0.07
				c0.11-0.05,0.16-0.17,0.14-0.28C220.1-30.62,216.6-35.57,210.84-37.52z"/>
			<path class="st2" d="M237.23-56.81c-0.02,0.12-0.12,0.21-0.25,0.21c-12.91,0.14-24.75,3.27-33.97,11.52
				c8.03-5.56,22.94-7.51,31.53-3.62c0.11,0.05,0.17,0.17,0.14,0.29c-0.03,0.12-0.13,0.2-0.25,0.2
				c-10.68-0.29-19.28,3.01-25.98,8.96c6.87,0.42,12.57,4.74,12.56,9.85c0,0.12-0.08,0.22-0.2,0.25c-0.12,0.02-0.23-0.04-0.28-0.14
				c-1.12-2.49-4.75-3.78-8.58-2.88c-4.18,0.98-7,4.19-6.3,7.17c0.47,2.01,2.44,3.4,4.95,3.79c0.13,0.02,0.22,0.13,0.22,0.26
				c0,0.13-0.1,0.23-0.23,0.25c-1.07,0.1-2.18,0.11-3.32,0c-6.49-0.62-11.51-4.59-11.95-9.18c-4.71,0.55-8.88,3.16-10.38,6.77
				c-0.04,0.11-0.16,0.17-0.28,0.15c-0.12-0.02-0.2-0.11-0.21-0.23c-0.38-4.75,1.26-7.84,4.97-10.85
				c-5.38,2.06-11.45,2.16-17.26-0.54c-0.11-0.05-0.16-0.17-0.14-0.28c0.02-0.12,0.12-0.2,0.24-0.2c4.88-0.19,8.42-1.76,11.73-5.07
				c-18.26,5.13-33.09-6.2-27.96-23.05c0.04-0.12,0.15-0.19,0.27-0.18s0.22,0.11,0.23,0.23c0.92,9.71,7.7,16.12,17.86,17.08
				c-5.39-2.06-11-6.97-11.56-15.53c-0.01-0.12,0.07-0.23,0.19-0.26c0.12-0.03,0.24,0.03,0.29,0.14c2.8,6.15,8.3,9.26,14.16,9.81
				c-6.33-2.58-10.4-8.6-11.57-16.42c-0.02-0.12,0.05-0.24,0.17-0.28c0.12-0.04,0.25,0.02,0.3,0.13
				c3.87,7.58,12.16,12.79,22.45,8.81c10.62-4.11,15.27-16.38,16.3-25.04c0.02-0.12,0.12-0.22,0.24-0.22
				c0.12-0.01,0.23,0.08,0.26,0.2c3.72,15.69-3.58,31.95-16.64,38.84c7.1-2,13.44-6.26,17.03-13.35c8.29-1.02,14-3.86,16.86-9.24
				c0.06-0.11,0.18-0.16,0.29-0.12c0.12,0.04,0.19,0.15,0.18,0.27c-0.18,2.11-0.94,6.33-4.07,8.27c6.96-0.01,12.51,0.89,17.8,3.01
				C237.18-57.04,237.25-56.93,237.23-56.81z M207.74-110.28c0.1,0.06,0.23,0.05,0.32-0.03c0.09-0.08,0.1-0.21,0.04-0.31
				c-1.62-2.8-0.14-6.81,3.05-6.81c5.72,0,8.47,10.77,7.6,20.59c-2.16-5.75-4.03-8.05-7.35-10.79c-0.09-0.08-0.23-0.08-0.32,0
				c-0.09,0.08-0.12,0.21-0.06,0.32c4.86,9.08,5.9,16.06,5.9,24.08c-1.46-5.96-3.2-9.32-8.13-14.38c-0.09-0.09-0.22-0.1-0.32-0.03
				c-0.1,0.07-0.14,0.2-0.09,0.31c5.3,11.59,4.89,24.45,0.95,34.26c-0.04,0.1-0.01,0.21,0.06,0.28c0.08,0.07,0.19,0.09,0.29,0.04
				c5.21-2.55,8.26-4.23,12.75-10.39c-1.36-7.4-0.23-11.05,3.17-17.19c-3.94,9.92-1.84,23.89,8.19,29.59
				c0.11,0.06,0.25,0.04,0.32-0.06c0.08-0.1,0.07-0.24-0.02-0.33c-3.78-3.96-6.53-10.63-4.16-17.93
				c-1.53,10.39,7.6,19.11,17.78,19.11c9.6,0,16.15-7.51,15.61-14.94c-0.54-7.37-5.44-10.97-9.67-12.5c-0.11-0.04-0.24,0-0.3,0.1
				c-0.06,0.1-0.05,0.23,0.03,0.31c5.61,5.69,6.38,16.49-3.58,19.76c5.86-5.06,3.69-16.83-5.69-17.72
				c-0.12-0.01-0.23,0.06-0.26,0.17c-0.04,0.11,0,0.23,0.1,0.3c2.01,1.28,3.68,3.77,3.68,6.57c0,4.67-3.42,6.51-5.68,6.51
				c-3.42,0-6.26-3.26-6.26-8.18c0-5.84,5.26-10.68,12.02-11.43c6.63-0.74,12.78,2.15,15.75,6.46c0.07,0.1,0.2,0.14,0.31,0.09
				c0.11-0.05,0.17-0.17,0.14-0.29c-3.02-11.7-16.8-16.88-26.89-9.51c6.61-7.5,17.01-7.61,25.72,0.09c0.09,0.08,0.22,0.09,0.32,0.01
				c0.1-0.07,0.13-0.21,0.07-0.31c-2.67-5.41-9.25-11.82-18.61-10.88c-8.56,0.86-13.52,9.02-14.52,15.69
				c-0.56-8.52,1.39-14.54,8.75-20.14c0.1-0.07,0.13-0.21,0.07-0.32c-0.05-0.11-0.18-0.16-0.3-0.13
				c-6.79,1.96-12.23,5.42-15.05,12.54c0-6.16,2.14-12.37,7.53-16.51c0.1-0.07,0.13-0.21,0.07-0.32c-0.05-0.11-0.18-0.16-0.29-0.13
				c-3.45,0.98-6.17,2.49-8.14,5.18c-1.31-11.1-6.52-17.69-12.53-17.69c-4.12,0-7.21,3.03-7.21,7.87
				C202.93-116.47,204.42-112.5,207.74-110.28z M108.51-18.66c3.16,3.9,9.54,5.39,16.43,3.99c-0.51,4.3,0.33,8.79,1.61,11.49
				c0.05,0.11,0.17,0.17,0.29,0.14s0.2-0.14,0.19-0.26c-0.38-8.77,4.62-15.84,13.45-18.91c-6.91,4.76-8.93,14.19-5.64,19.06
				c0.07,0.1,0.2,0.14,0.31,0.09c0.11-0.04,0.18-0.16,0.15-0.28c-0.37-2.06,0.61-4.68,2.71-6.72c2.91-2.81,6.85-3.45,8.81-1.43
				c1.96,2.03,1.2,5.95-1.71,8.76c-1.06,1.03-2.26,1.76-3.45,2.19c-0.11,0.04-0.18,0.15-0.17,0.27c0.01,0.12,0.11,0.21,0.23,0.22
				c6.39,0.55,10.77-3.25,13.52-7.88c2.79-4.71,7.57-8.41,13.21-7.67c0.12,0.02,0.23-0.05,0.27-0.17c0.04-0.11-0.01-0.24-0.11-0.3
				c-2.8-1.68-5.87-2.38-9.86-1.05c5.79-4.91,14.05-7.74,21.84-5.23c0.11,0.04,0.23-0.01,0.29-0.1c0.06-0.1,0.05-0.22-0.03-0.31
				c-5.91-6.56-17.69-6.7-25.11-1.37c3.04-4.32,7.07-7.49,14.29-8.48c0.12-0.02,0.21-0.11,0.22-0.22c0.01-0.12-0.05-0.22-0.16-0.27
				c-8.29-3.08-16.6,0.04-23.45,8.22c2.99-6.38,7.91-11.49,14.77-14.01c0.12-0.04,0.18-0.16,0.16-0.28
				c-0.02-0.12-0.12-0.21-0.24-0.21c-3.94-0.08-7.49,0.86-12.26,3.57c3.51-5.69,2.74-15.64-2.37-22.26c-0.07-0.09-0.2-0.12-0.3-0.08
				c-0.11,0.05-0.17,0.16-0.15,0.28c1.18,7.2-1.3,15.33-5.61,19.64c2.15-7.63,0.01-14.58-5.9-19.64c-0.07-0.06-0.17-0.08-0.26-0.04
				c-0.09,0.03-0.15,0.11-0.16,0.2c-1.23,9.42-11.77,18.97-20.6,19.78c-0.12,0.01-0.22,0.11-0.23,0.24
				c-0.01,0.12,0.07,0.24,0.2,0.26c4.28,0.97,8.69,0.49,12.39-1.03c-2.66,2.93-5.94,5.11-9.55,6.24c-0.12,0.04-0.19,0.15-0.18,0.27
				c0.01,0.12,0.11,0.22,0.23,0.22c4.51,0.31,8.92-1.01,12.73-3.54c-4.36,6.62-10.98,11.54-19.43,13.51
				c-0.12,0.03-0.2,0.14-0.2,0.26c0.01,0.12,0.1,0.22,0.23,0.24c11.92,1.3,21.75-3.32,28.22-11.92c-1.65,4.9-6.37,9.76-12.95,12.62
				c-5.85,2.55-11.85,2.95-16.42,1.51c-0.11-0.03-0.22,0.01-0.29,0.1C108.44-18.87,108.44-18.75,108.51-18.66z M161.42-94.23
				c-4.81,10.49-4.46,18.69-0.59,29.05c0.04,0.12,0.17,0.19,0.29,0.16c0.12-0.03,0.21-0.14,0.2-0.26
				c-0.62-12.62,2.83-21.65,10.3-27.81c-8.25,9.85-4.35,29.56,8.82,29.56c9.59,0,17.52-7.98,19.46-17.53
				c0.03-0.12-0.04-0.24-0.16-0.29c-0.12-0.04-0.25,0-0.31,0.11c-2.84,4.76-7.41,7.85-12.46,7.85c-8.13,0-10.54-6.47-10.54-11
				c0-6.19,4.93-11.34,8.71-11.34c3.44,0,5.04,2.82,5.04,4.93c0,3.9-3,7.17-6.38,8.16c-0.12,0.04-0.2,0.15-0.18,0.28
				c0.02,0.12,0.12,0.22,0.25,0.22c4.11,0.03,7.58-1.85,9.63-5.57c0.27,2.88,0.27,4.69-0.64,7.72c-0.04,0.12,0.02,0.24,0.12,0.3
				c0.11,0.05,0.24,0.03,0.32-0.07c7.36-9.39,3.84-25.62-1.98-32.36c5.53,3.98,10.42,12.63,10.34,24.39c0,0.12,0.08,0.23,0.21,0.25
				c0.12,0.02,0.24-0.04,0.28-0.15c4.11-10.25,1.93-29.25-9.28-39.85c2.88-0.4,5.87-0.35,9.12,0.69c0.12,0.04,0.24-0.01,0.3-0.12
				c0.06-0.11,0.04-0.24-0.06-0.32c-4.09-3.46-9.81-4.54-15.27-4.54c4.7,5.5,3.14,16.55-4.35,16.55c-5.35,0-7.78-8.3-3.65-12.78
				c0.08-0.09,0.09-0.21,0.03-0.31c-0.06-0.1-0.19-0.14-0.3-0.1c-4.78,1.66-9.95,5.79-9.95,11.02c0,5.04,4.81,9.39,11.8,9.05
				c-8.82,2.5-18.05-0.27-22.88-6.25c-0.07-0.09-0.21-0.12-0.31-0.07c-0.11,0.05-0.16,0.17-0.13,0.29
				c2.79,10.71,11.97,15.2,23.44,13.71c-9.28,3.76-23.25,0.48-29.42-7.31c-0.07-0.09-0.2-0.12-0.31-0.07
				c-0.11,0.05-0.16,0.17-0.14,0.28C152.17-101.13,155.66-96.19,161.42-94.23z"/>
		</g>
		<g>
			<path class="st1" d="M26.7-74.95c0.02-0.12,0.12-0.21,0.25-0.21c12.91-0.13,24.75-3.27,33.97-11.51
				c-8.03,5.56-22.94,7.51-31.53,3.62c-0.11-0.05-0.17-0.17-0.14-0.29c0.03-0.12,0.13-0.2,0.25-0.2
				c10.68,0.29,19.28-3.01,25.98-8.96c-6.87-0.42-12.57-4.74-12.56-9.84c0-0.12,0.08-0.22,0.2-0.25c0.12-0.03,0.23,0.04,0.28,0.14
				c1.12,2.49,4.75,3.78,8.58,2.88c4.18-0.98,7-4.19,6.3-7.17c-0.47-2.01-2.44-3.4-4.95-3.79c-0.13-0.02-0.22-0.13-0.22-0.26
				c0-0.13,0.1-0.23,0.23-0.25c1.07-0.1,2.18-0.11,3.32,0c6.49,0.62,11.51,4.6,11.95,9.18c4.71-0.55,8.88-3.16,10.38-6.77
				c0.04-0.11,0.16-0.17,0.28-0.15c0.12,0.02,0.2,0.11,0.21,0.23c0.38,4.75-1.26,7.84-4.97,10.85c5.38-2.06,11.45-2.17,17.26,0.54
				c0.11,0.05,0.16,0.16,0.14,0.28c-0.02,0.12-0.12,0.2-0.24,0.2c-4.88,0.19-8.42,1.76-11.73,5.07c18.25-5.13,33.09,6.2,27.95,23.05
				c-0.04,0.12-0.15,0.19-0.27,0.18c-0.12-0.01-0.22-0.11-0.23-0.23c-0.92-9.71-7.7-16.12-17.86-17.08
				c5.39,2.06,11,6.98,11.56,15.53c0.01,0.12-0.07,0.23-0.19,0.26c-0.12,0.03-0.24-0.03-0.29-0.14c-2.8-6.15-8.3-9.27-14.16-9.81
				c6.33,2.58,10.4,8.6,11.57,16.42c0.02,0.12-0.05,0.24-0.17,0.28c-0.12,0.04-0.25-0.02-0.3-0.12
				c-3.87-7.58-12.16-12.79-22.45-8.81c-10.62,4.11-15.27,16.39-16.3,25.04c-0.02,0.12-0.12,0.21-0.24,0.22
				c-0.12,0.01-0.23-0.07-0.26-0.2c-3.72-15.69,3.58-31.95,16.64-38.84c-7.1,2-13.44,6.26-17.03,13.35
				c-8.29,1.02-14,3.86-16.86,9.24c-0.06,0.11-0.18,0.16-0.29,0.12c-0.12-0.03-0.19-0.14-0.18-0.27c0.18-2.11,0.94-6.33,4.07-8.27
				c-6.97,0.01-12.51-0.89-17.8-3.01C26.74-74.71,26.67-74.83,26.7-74.95z M56.18-21.47c-0.1-0.07-0.23-0.05-0.32,0.03
				c-0.09,0.08-0.1,0.21-0.04,0.31c1.62,2.8,0.14,6.81-3.05,6.81c-5.72,0-8.47-10.77-7.6-20.59c2.16,5.76,4.03,8.05,7.35,10.79
				c0.09,0.08,0.23,0.08,0.32,0c0.09-0.08,0.12-0.21,0.06-0.32c-4.86-9.08-5.9-16.07-5.9-24.09c1.46,5.96,3.2,9.32,8.13,14.38
				c0.09,0.09,0.22,0.1,0.32,0.03c0.1-0.07,0.14-0.2,0.09-0.32c-5.3-11.59-4.89-24.45-0.95-34.26c0.04-0.1,0.01-0.21-0.06-0.28
				c-0.08-0.07-0.19-0.09-0.29-0.04c-5.21,2.55-8.26,4.23-12.75,10.39c1.36,7.4,0.23,11.05-3.17,17.2
				c3.94-9.92,1.84-23.89-8.19-29.59c-0.11-0.06-0.25-0.03-0.32,0.06c-0.08,0.1-0.07,0.24,0.02,0.33
				c3.78,3.96,6.53,10.63,4.16,17.93c1.53-10.39-7.6-19.12-17.78-19.12c-9.6,0-16.15,7.51-15.61,14.94
				c0.54,7.37,5.44,10.97,9.67,12.5c0.11,0.04,0.24,0,0.3-0.1c0.06-0.1,0.05-0.23-0.03-0.32c-5.61-5.69-6.38-16.49,3.58-19.76
				c-5.86,5.06-3.69,16.83,5.69,17.72c0.12,0.01,0.23-0.06,0.26-0.17c0.04-0.11,0-0.23-0.1-0.3c-2.01-1.28-3.68-3.77-3.68-6.57
				c0-4.67,3.42-6.51,5.68-6.51c3.42,0,6.26,3.26,6.26,8.18c0,5.84-5.26,10.68-12.02,11.44c-6.63,0.73-12.78-2.15-15.75-6.46
				c-0.07-0.1-0.2-0.14-0.31-0.09c-0.11,0.05-0.17,0.18-0.14,0.29c3.02,11.7,16.8,16.88,26.89,9.51C20.28-30,9.89-29.9,1.17-37.59
				c-0.09-0.08-0.23-0.08-0.32-0.01c-0.1,0.07-0.13,0.21-0.07,0.31c2.67,5.41,9.25,11.82,18.61,10.88
				c8.56-0.86,13.52-9.01,14.52-15.69c0.56,8.52-1.39,14.54-8.75,20.15c-0.1,0.07-0.13,0.21-0.07,0.32c0.05,0.11,0.18,0.16,0.3,0.13
				c6.79-1.96,12.23-5.43,15.05-12.54c0,6.16-2.14,12.37-7.53,16.51c-0.1,0.07-0.13,0.21-0.07,0.31c0.05,0.11,0.18,0.16,0.3,0.13
				c3.45-0.98,6.17-2.49,8.14-5.19c1.31,11.1,6.52,17.69,12.53,17.69c4.12,0,7.21-3.03,7.21-7.87
				C60.99-15.29,59.51-19.26,56.18-21.47z M155.41-113.09c-3.16-3.9-9.54-5.39-16.43-3.99c0.51-4.3-0.33-8.79-1.61-11.48
				c-0.05-0.11-0.17-0.17-0.29-0.14c-0.12,0.03-0.2,0.14-0.19,0.26c0.38,8.77-4.62,15.84-13.45,18.91
				c6.91-4.76,8.93-14.19,5.64-19.07c-0.07-0.1-0.2-0.14-0.31-0.09c-0.11,0.04-0.18,0.16-0.15,0.28c0.37,2.06-0.61,4.68-2.71,6.73
				c-2.91,2.81-6.85,3.45-8.81,1.43c-1.96-2.03-1.2-5.95,1.71-8.76c1.06-1.03,2.26-1.76,3.45-2.18c0.11-0.04,0.18-0.15,0.17-0.27
				c-0.01-0.12-0.11-0.21-0.23-0.22c-6.39-0.55-10.77,3.25-13.52,7.88c-2.79,4.71-7.57,8.41-13.21,7.67
				c-0.12-0.02-0.23,0.05-0.27,0.17c-0.04,0.11,0.01,0.24,0.11,0.3c2.8,1.68,5.87,2.38,9.86,1.05c-5.79,4.91-14.05,7.74-21.84,5.23
				c-0.11-0.04-0.23,0.01-0.29,0.1c-0.06,0.1-0.05,0.22,0.03,0.31c5.91,6.56,17.69,6.7,25.11,1.37c-3.04,4.32-7.07,7.48-14.29,8.48
				c-0.12,0.02-0.21,0.11-0.22,0.22c-0.01,0.12,0.05,0.23,0.16,0.27c8.29,3.08,16.6-0.04,23.45-8.21
				c-2.99,6.38-7.91,11.48-14.77,14.01c-0.12,0.04-0.18,0.16-0.16,0.28c0.02,0.12,0.12,0.21,0.24,0.21
				c3.94,0.08,7.49-0.86,12.27-3.57c-3.51,5.69-2.74,15.64,2.37,22.26c0.07,0.09,0.2,0.12,0.3,0.08c0.11-0.05,0.17-0.16,0.15-0.27
				c-1.18-7.2,1.3-15.33,5.61-19.64c-2.15,7.63-0.01,14.58,5.9,19.64c0.07,0.06,0.17,0.08,0.26,0.04c0.09-0.03,0.15-0.11,0.16-0.2
				c1.23-9.42,11.77-18.97,20.6-19.78c0.12-0.01,0.22-0.11,0.23-0.24c0.01-0.12-0.07-0.24-0.2-0.26c-4.28-0.97-8.69-0.49-12.39,1.03
				c2.66-2.93,5.94-5.11,9.55-6.25c0.12-0.04,0.19-0.15,0.18-0.27c-0.01-0.12-0.11-0.21-0.23-0.22c-4.51-0.31-8.92,1.01-12.73,3.54
				c4.36-6.62,10.98-11.54,19.43-13.51c0.12-0.03,0.2-0.14,0.2-0.26c-0.01-0.12-0.1-0.22-0.23-0.24
				c-11.92-1.3-21.75,3.32-28.22,11.92c1.65-4.9,6.37-9.76,12.95-12.62c5.85-2.55,11.85-2.95,16.42-1.51
				c0.11,0.03,0.22-0.01,0.29-0.1C155.48-112.88,155.48-113.01,155.41-113.09z M102.51-37.52c4.81-10.49,4.46-18.69,0.59-29.05
				c-0.04-0.12-0.17-0.18-0.29-0.16c-0.12,0.03-0.21,0.14-0.2,0.26c0.62,12.62-2.83,21.65-10.3,27.81
				c8.25-9.85,4.35-29.56-8.82-29.56c-9.59,0-17.52,7.98-19.46,17.52c-0.03,0.12,0.04,0.24,0.16,0.29c0.12,0.04,0.25,0,0.31-0.11
				c2.84-4.76,7.41-7.85,12.46-7.85c8.13,0,10.54,6.47,10.54,11c0,6.19-4.93,11.34-8.71,11.34c-3.44,0-5.04-2.82-5.04-4.93
				c0-3.9,3-7.17,6.38-8.16c0.12-0.04,0.2-0.15,0.18-0.28c-0.02-0.12-0.12-0.22-0.25-0.22c-4.11-0.03-7.58,1.86-9.63,5.57
				c-0.27-2.88-0.27-4.69,0.64-7.72c0.04-0.12-0.02-0.24-0.12-0.3c-0.11-0.06-0.24-0.03-0.32,0.07c-7.36,9.39-3.84,25.63,1.98,32.36
				c-5.53-3.98-10.42-12.63-10.34-24.39c0-0.12-0.08-0.23-0.21-0.25c-0.12-0.03-0.24,0.04-0.28,0.15
				c-4.11,10.25-1.93,29.25,9.28,39.85c-2.88,0.4-5.87,0.35-9.12-0.69c-0.12-0.04-0.24,0.01-0.3,0.12
				c-0.06,0.11-0.04,0.24,0.06,0.32C65.78-1.09,71.5,0,76.95,0c-4.7-5.5-3.14-16.55,4.36-16.55c5.35,0,7.78,8.3,3.65,12.78
				c-0.08,0.09-0.09,0.21-0.03,0.31c0.06,0.1,0.19,0.14,0.3,0.1c4.78-1.65,9.95-5.79,9.95-11.02c0-5.04-4.81-9.39-11.8-9.05
				c8.82-2.51,18.05,0.27,22.88,6.25c0.07,0.09,0.21,0.12,0.31,0.07c0.11-0.05,0.16-0.18,0.13-0.29
				c-2.79-10.72-11.97-15.2-23.44-13.71c9.28-3.76,23.25-0.48,29.42,7.31c0.07,0.09,0.2,0.12,0.31,0.07
				c0.11-0.05,0.16-0.17,0.14-0.28C111.76-30.62,108.27-35.57,102.51-37.52z"/>
			<path class="st2" d="M128.89-56.81c-0.02,0.12-0.12,0.21-0.25,0.21c-12.91,0.14-24.75,3.27-33.97,11.52
				c8.03-5.56,22.94-7.51,31.53-3.62c0.11,0.05,0.17,0.17,0.14,0.29c-0.03,0.12-0.13,0.2-0.25,0.2
				c-10.68-0.29-19.28,3.01-25.98,8.96c6.87,0.42,12.57,4.74,12.56,9.85c0,0.12-0.08,0.22-0.2,0.25c-0.12,0.02-0.23-0.04-0.28-0.14
				c-1.12-2.49-4.75-3.78-8.58-2.88c-4.18,0.98-7,4.19-6.3,7.17c0.47,2.01,2.44,3.4,4.95,3.79c0.13,0.02,0.22,0.13,0.22,0.26
				c0,0.13-0.1,0.23-0.23,0.25c-1.07,0.1-2.18,0.11-3.32,0c-6.49-0.62-11.51-4.59-11.95-9.18c-4.71,0.55-8.88,3.16-10.38,6.77
				c-0.04,0.11-0.16,0.17-0.28,0.15c-0.12-0.02-0.2-0.11-0.21-0.23c-0.38-4.75,1.26-7.84,4.97-10.85
				c-5.38,2.06-11.45,2.16-17.26-0.54c-0.11-0.05-0.16-0.17-0.14-0.28c0.02-0.12,0.12-0.2,0.24-0.2c4.88-0.19,8.42-1.76,11.73-5.07
				c-18.26,5.13-33.09-6.2-27.95-23.05c0.04-0.12,0.15-0.19,0.27-0.18c0.12,0.01,0.22,0.11,0.23,0.23
				c0.92,9.71,7.7,16.12,17.86,17.08c-5.39-2.06-11-6.97-11.56-15.53c-0.01-0.12,0.07-0.23,0.19-0.26c0.12-0.03,0.24,0.03,0.29,0.14
				c2.8,6.15,8.3,9.26,14.16,9.81c-6.33-2.58-10.4-8.6-11.57-16.42c-0.02-0.12,0.05-0.24,0.17-0.28c0.12-0.04,0.25,0.02,0.3,0.13
				c3.87,7.58,12.16,12.79,22.45,8.81c10.62-4.11,15.27-16.38,16.3-25.04c0.02-0.12,0.12-0.22,0.24-0.22
				c0.12-0.01,0.23,0.08,0.26,0.2C101-69.07,93.7-52.81,80.65-45.92c7.1-2,13.44-6.26,17.03-13.35c8.29-1.02,14-3.86,16.86-9.24
				c0.06-0.11,0.18-0.16,0.29-0.12c0.12,0.04,0.19,0.15,0.18,0.27c-0.18,2.11-0.94,6.33-4.07,8.27c6.96-0.01,12.51,0.89,17.8,3.01
				C128.85-57.04,128.91-56.93,128.89-56.81z M99.4-110.28c0.1,0.06,0.23,0.05,0.32-0.03c0.09-0.08,0.1-0.21,0.04-0.31
				c-1.62-2.8-0.14-6.81,3.05-6.81c5.72,0,8.47,10.77,7.6,20.59c-2.16-5.75-4.03-8.05-7.35-10.79c-0.09-0.08-0.23-0.08-0.32,0
				c-0.09,0.08-0.12,0.21-0.06,0.32c4.86,9.08,5.9,16.06,5.9,24.08c-1.46-5.96-3.2-9.32-8.13-14.38c-0.09-0.09-0.22-0.1-0.32-0.03
				c-0.1,0.07-0.14,0.2-0.09,0.31c5.3,11.59,4.89,24.45,0.95,34.26c-0.04,0.1-0.01,0.21,0.06,0.28c0.08,0.07,0.19,0.09,0.29,0.04
				c5.21-2.55,8.26-4.23,12.75-10.39c-1.36-7.4-0.23-11.05,3.17-17.19c-3.94,9.92-1.84,23.89,8.19,29.59
				c0.11,0.06,0.25,0.04,0.32-0.06c0.08-0.1,0.07-0.24-0.02-0.33c-3.78-3.96-6.53-10.63-4.16-17.93
				c-1.53,10.39,7.6,19.11,17.78,19.11c9.6,0,16.15-7.51,15.61-14.94c-0.54-7.37-5.44-10.97-9.67-12.5c-0.11-0.04-0.24,0-0.3,0.1
				c-0.06,0.1-0.05,0.23,0.03,0.31c5.61,5.69,6.38,16.49-3.58,19.76c5.86-5.06,3.69-16.83-5.69-17.72
				c-0.12-0.01-0.23,0.06-0.26,0.17c-0.04,0.11,0,0.23,0.1,0.3c2.01,1.28,3.68,3.77,3.68,6.57c0,4.67-3.42,6.51-5.68,6.51
				c-3.42,0-6.26-3.26-6.26-8.18c0-5.84,5.26-10.68,12.02-11.43c6.63-0.74,12.78,2.15,15.75,6.46c0.07,0.1,0.2,0.14,0.31,0.09
				c0.11-0.05,0.17-0.17,0.14-0.29c-3.02-11.7-16.8-16.88-26.89-9.51c6.61-7.5,17.01-7.61,25.72,0.09c0.09,0.08,0.22,0.09,0.32,0.01
				c0.1-0.07,0.13-0.21,0.07-0.31c-2.67-5.41-9.25-11.82-18.61-10.88c-8.56,0.86-13.52,9.02-14.52,15.69
				c-0.56-8.52,1.39-14.54,8.75-20.14c0.1-0.07,0.13-0.21,0.07-0.32c-0.05-0.11-0.18-0.16-0.3-0.13
				c-6.79,1.96-12.23,5.42-15.05,12.54c0-6.16,2.14-12.37,7.53-16.51c0.1-0.07,0.13-0.21,0.07-0.32c-0.05-0.11-0.18-0.16-0.29-0.13
				c-3.45,0.98-6.17,2.49-8.14,5.18c-1.31-11.1-6.52-17.69-12.53-17.69c-4.12,0-7.21,3.03-7.21,7.87
				C94.59-116.47,96.08-112.5,99.4-110.28z M0.17-18.66c3.16,3.9,9.54,5.39,16.43,3.99c-0.51,4.3,0.33,8.79,1.61,11.49
				c0.05,0.11,0.17,0.17,0.29,0.14c0.12-0.03,0.2-0.14,0.19-0.26c-0.38-8.77,4.62-15.84,13.45-18.91
				c-6.91,4.76-8.93,14.19-5.64,19.06c0.07,0.1,0.2,0.14,0.31,0.09C26.93-3.1,27-3.22,26.97-3.34c-0.37-2.06,0.61-4.68,2.71-6.72
				c2.91-2.81,6.85-3.45,8.81-1.43c1.96,2.03,1.2,5.95-1.71,8.76c-1.06,1.03-2.26,1.76-3.45,2.19c-0.11,0.04-0.18,0.15-0.17,0.27
				c0.01,0.12,0.11,0.21,0.23,0.22c6.39,0.55,10.77-3.25,13.52-7.88c2.8-4.71,7.57-8.41,13.21-7.67c0.12,0.02,0.23-0.05,0.27-0.17
				c0.04-0.11-0.01-0.24-0.11-0.3c-2.8-1.68-5.87-2.38-9.86-1.05c5.79-4.91,14.05-7.74,21.84-5.23c0.11,0.04,0.23-0.01,0.29-0.1
				c0.06-0.1,0.05-0.22-0.03-0.31c-5.91-6.56-17.69-6.7-25.11-1.37c3.04-4.32,7.07-7.49,14.29-8.48c0.12-0.02,0.21-0.11,0.22-0.22
				c0.01-0.12-0.05-0.22-0.16-0.27c-8.29-3.08-16.6,0.04-23.45,8.22c2.99-6.38,7.91-11.49,14.77-14.01
				c0.12-0.04,0.18-0.16,0.16-0.28c-0.02-0.12-0.12-0.21-0.24-0.21c-3.94-0.08-7.49,0.86-12.27,3.57
				c3.51-5.69,2.74-15.64-2.37-22.26c-0.07-0.09-0.2-0.12-0.3-0.08c-0.11,0.05-0.17,0.16-0.15,0.28c1.18,7.2-1.3,15.33-5.61,19.64
				c2.15-7.63,0.01-14.58-5.9-19.64c-0.07-0.06-0.17-0.08-0.26-0.04c-0.09,0.03-0.15,0.11-0.16,0.2
				c-1.23,9.42-11.77,18.97-20.6,19.78c-0.12,0.01-0.22,0.11-0.23,0.24c-0.01,0.12,0.07,0.24,0.2,0.26
				c4.28,0.97,8.69,0.49,12.39-1.03c-2.66,2.93-5.94,5.11-9.55,6.24c-0.12,0.04-0.19,0.15-0.18,0.27c0.01,0.12,0.11,0.22,0.23,0.22
				c4.51,0.31,8.92-1.01,12.73-3.54c-4.36,6.62-10.98,11.54-19.43,13.51c-0.12,0.03-0.2,0.14-0.2,0.26c0.01,0.12,0.1,0.22,0.23,0.24
				c11.92,1.3,21.75-3.32,28.22-11.92c-1.65,4.9-6.37,9.76-12.95,12.62c-5.85,2.55-11.85,2.95-16.42,1.51
				c-0.11-0.03-0.22,0.01-0.29,0.1C0.1-18.87,0.1-18.75,0.17-18.66z M53.08-94.23c-4.81,10.49-4.46,18.69-0.59,29.05
				c0.04,0.12,0.17,0.19,0.29,0.16c0.12-0.03,0.21-0.14,0.2-0.26c-0.62-12.62,2.83-21.65,10.3-27.81
				c-8.25,9.85-4.35,29.56,8.82,29.56c9.59,0,17.52-7.98,19.46-17.53c0.03-0.12-0.04-0.24-0.16-0.29c-0.12-0.04-0.25,0-0.31,0.11
				c-2.84,4.76-7.41,7.85-12.46,7.85c-8.13,0-10.54-6.47-10.54-11c0-6.19,4.93-11.34,8.71-11.34c3.44,0,5.04,2.82,5.04,4.93
				c0,3.9-3,7.17-6.38,8.16c-0.12,0.04-0.2,0.15-0.18,0.28s0.12,0.22,0.25,0.22c4.11,0.03,7.58-1.85,9.63-5.57
				c0.27,2.88,0.27,4.69-0.64,7.72c-0.04,0.12,0.02,0.24,0.12,0.3c0.11,0.05,0.24,0.03,0.32-0.07c7.36-9.39,3.84-25.62-1.98-32.36
				c5.53,3.98,10.42,12.63,10.34,24.39c0,0.12,0.08,0.23,0.21,0.25c0.12,0.02,0.24-0.04,0.28-0.15c4.11-10.25,1.93-29.25-9.28-39.85
				c2.88-0.4,5.87-0.35,9.12,0.69c0.12,0.04,0.24-0.01,0.3-0.12c0.06-0.11,0.04-0.24-0.06-0.32c-4.09-3.46-9.81-4.54-15.27-4.54
				c4.7,5.5,3.14,16.55-4.35,16.55c-5.35,0-7.78-8.3-3.65-12.78c0.08-0.09,0.09-0.21,0.03-0.31c-0.06-0.1-0.19-0.14-0.3-0.1
				c-4.78,1.66-9.95,5.79-9.95,11.02c0,5.04,4.81,9.39,11.8,9.05c-8.82,2.5-18.05-0.27-22.88-6.25c-0.07-0.09-0.21-0.12-0.31-0.07
				c-0.11,0.05-0.16,0.17-0.13,0.29c2.79,10.71,11.97,15.2,23.44,13.71c-9.28,3.76-23.25,0.48-29.42-7.31
				c-0.07-0.09-0.2-0.12-0.31-0.07c-0.11,0.05-0.16,0.17-0.14,0.28C43.83-101.13,47.32-96.19,53.08-94.23z"/>
		</g>
		<g>
			<path class="st1" d="M135.03-184.59c0.02-0.12,0.12-0.21,0.25-0.21c12.91-0.13,24.75-3.27,33.97-11.51
				c-8.03,5.56-22.94,7.51-31.53,3.62c-0.11-0.05-0.17-0.17-0.14-0.29c0.03-0.12,0.13-0.2,0.25-0.2
				c10.68,0.29,19.28-3.01,25.98-8.96c-6.87-0.42-12.57-4.74-12.56-9.84c0-0.12,0.08-0.22,0.2-0.25c0.12-0.03,0.23,0.04,0.28,0.14
				c1.12,2.49,4.75,3.78,8.58,2.88c4.18-0.98,7-4.19,6.3-7.17c-0.47-2.01-2.44-3.4-4.95-3.79c-0.13-0.02-0.22-0.13-0.22-0.26
				c0-0.13,0.1-0.23,0.23-0.25c1.07-0.1,2.18-0.11,3.32,0c6.49,0.62,11.51,4.6,11.95,9.18c4.71-0.55,8.88-3.16,10.38-6.77
				c0.04-0.11,0.16-0.17,0.28-0.15c0.12,0.02,0.2,0.11,0.21,0.23c0.38,4.75-1.26,7.84-4.97,10.85c5.38-2.06,11.45-2.17,17.26,0.54
				c0.11,0.05,0.16,0.16,0.14,0.28c-0.02,0.12-0.12,0.2-0.24,0.2c-4.88,0.19-8.42,1.76-11.73,5.07c18.25-5.13,33.09,6.2,27.95,23.05
				c-0.04,0.12-0.15,0.19-0.27,0.18c-0.12-0.01-0.22-0.11-0.23-0.23c-0.92-9.71-7.7-16.12-17.86-17.08
				c5.39,2.06,11,6.98,11.56,15.53c0.01,0.12-0.07,0.23-0.19,0.26c-0.12,0.03-0.24-0.03-0.29-0.14c-2.8-6.15-8.3-9.27-14.16-9.81
				c6.33,2.58,10.4,8.6,11.57,16.42c0.02,0.12-0.05,0.24-0.17,0.28c-0.12,0.04-0.25-0.02-0.3-0.12
				c-3.87-7.58-12.16-12.79-22.45-8.81c-10.62,4.11-15.27,16.39-16.3,25.04c-0.02,0.12-0.12,0.21-0.24,0.22
				c-0.12,0.01-0.23-0.07-0.26-0.2c-3.72-15.69,3.58-31.95,16.64-38.84c-7.1,2-13.44,6.26-17.03,13.35
				c-8.29,1.02-14,3.86-16.86,9.24c-0.06,0.11-0.18,0.16-0.29,0.12c-0.12-0.03-0.19-0.14-0.18-0.27c0.18-2.11,0.94-6.33,4.07-8.27
				c-6.96,0.01-12.51-0.89-17.8-3.01C135.08-184.35,135.01-184.47,135.03-184.59z M164.52-131.12c-0.1-0.07-0.23-0.05-0.32,0.03
				c-0.09,0.08-0.1,0.21-0.04,0.31c1.62,2.8,0.14,6.81-3.05,6.81c-5.72,0-8.47-10.77-7.6-20.59c2.16,5.76,4.03,8.05,7.35,10.79
				c0.09,0.08,0.23,0.08,0.32,0c0.09-0.08,0.12-0.21,0.06-0.32c-4.86-9.08-5.9-16.07-5.9-24.09c1.46,5.96,3.2,9.32,8.13,14.38
				c0.09,0.09,0.22,0.1,0.32,0.03c0.1-0.07,0.14-0.2,0.09-0.32c-5.3-11.59-4.89-24.45-0.95-34.26c0.04-0.1,0.01-0.21-0.06-0.28
				c-0.08-0.07-0.19-0.09-0.29-0.04c-5.21,2.55-8.26,4.23-12.75,10.39c1.36,7.4,0.23,11.05-3.17,17.2
				c3.94-9.92,1.84-23.89-8.19-29.59c-0.11-0.06-0.25-0.03-0.32,0.06c-0.08,0.1-0.07,0.24,0.02,0.33
				c3.78,3.96,6.53,10.63,4.16,17.93c1.53-10.39-7.6-19.12-17.78-19.12c-9.6,0-16.15,7.51-15.61,14.94
				c0.54,7.37,5.44,10.97,9.67,12.5c0.11,0.04,0.24,0,0.3-0.1c0.06-0.1,0.05-0.23-0.03-0.32c-5.61-5.69-6.38-16.49,3.58-19.76
				c-5.86,5.06-3.69,16.83,5.69,17.72c0.12,0.01,0.23-0.06,0.26-0.17c0.04-0.11,0-0.23-0.1-0.3c-2.01-1.28-3.68-3.77-3.68-6.57
				c0-4.67,3.42-6.51,5.68-6.51c3.42,0,6.26,3.26,6.26,8.18c0,5.84-5.26,10.68-12.02,11.44c-6.63,0.73-12.78-2.15-15.75-6.46
				c-0.07-0.1-0.2-0.14-0.31-0.09c-0.11,0.05-0.17,0.18-0.14,0.29c3.02,11.7,16.8,16.88,26.89,9.51c-6.61,7.5-17.01,7.61-25.72-0.09
				c-0.09-0.08-0.23-0.08-0.32-0.01c-0.1,0.07-0.13,0.21-0.07,0.31c2.67,5.41,9.25,11.82,18.61,10.88
				c8.56-0.86,13.52-9.01,14.52-15.69c0.56,8.52-1.39,14.54-8.75,20.15c-0.1,0.07-0.13,0.21-0.07,0.32c0.05,0.11,0.18,0.16,0.3,0.13
				c6.79-1.96,12.23-5.43,15.05-12.54c0,6.16-2.14,12.37-7.53,16.51c-0.1,0.07-0.13,0.21-0.07,0.31s0.18,0.16,0.3,0.13
				c3.45-0.98,6.17-2.49,8.14-5.19c1.31,11.1,6.52,17.69,12.52,17.69c4.12,0,7.21-3.03,7.21-7.87
				C169.33-124.93,167.84-128.9,164.52-131.12z M263.75-222.74c-3.16-3.9-9.54-5.39-16.43-3.99c0.51-4.3-0.33-8.79-1.61-11.48
				c-0.05-0.11-0.17-0.17-0.29-0.14c-0.12,0.03-0.2,0.14-0.19,0.26c0.38,8.77-4.62,15.84-13.45,18.91
				c6.91-4.76,8.93-14.19,5.64-19.07c-0.07-0.1-0.2-0.14-0.31-0.09c-0.11,0.04-0.18,0.16-0.15,0.28c0.37,2.06-0.61,4.68-2.71,6.73
				c-2.91,2.81-6.85,3.45-8.81,1.43c-1.96-2.03-1.2-5.95,1.71-8.76c1.06-1.03,2.26-1.76,3.45-2.18c0.11-0.04,0.18-0.15,0.17-0.27
				c-0.01-0.12-0.11-0.21-0.23-0.22c-6.39-0.55-10.77,3.25-13.52,7.88c-2.79,4.71-7.57,8.41-13.21,7.67
				c-0.12-0.02-0.23,0.05-0.27,0.17c-0.04,0.11,0.01,0.24,0.11,0.3c2.8,1.68,5.87,2.38,9.86,1.05c-5.79,4.91-14.05,7.74-21.84,5.23
				c-0.11-0.04-0.23,0.01-0.29,0.1c-0.06,0.1-0.05,0.22,0.03,0.31c5.91,6.56,17.69,6.7,25.11,1.37c-3.04,4.32-7.07,7.48-14.29,8.48
				c-0.12,0.02-0.21,0.11-0.22,0.22c-0.01,0.12,0.05,0.23,0.16,0.27c8.29,3.08,16.6-0.04,23.45-8.21
				c-2.99,6.38-7.91,11.48-14.77,14.01c-0.12,0.04-0.18,0.16-0.16,0.28c0.02,0.12,0.12,0.21,0.24,0.21
				c3.94,0.08,7.49-0.86,12.27-3.57c-3.51,5.69-2.74,15.64,2.37,22.26c0.07,0.09,0.2,0.12,0.3,0.08c0.11-0.05,0.17-0.16,0.15-0.27
				c-1.18-7.2,1.3-15.33,5.61-19.64c-2.15,7.63-0.01,14.58,5.9,19.64c0.07,0.06,0.17,0.08,0.26,0.04c0.09-0.03,0.15-0.11,0.16-0.2
				c1.23-9.42,11.77-18.97,20.6-19.78c0.12-0.01,0.22-0.11,0.23-0.24c0.01-0.12-0.07-0.24-0.2-0.26c-4.28-0.97-8.69-0.49-12.39,1.03
				c2.66-2.93,5.94-5.11,9.56-6.25c0.12-0.04,0.19-0.15,0.18-0.27c-0.01-0.12-0.11-0.21-0.23-0.22c-4.51-0.31-8.92,1.01-12.73,3.54
				c4.36-6.62,10.98-11.54,19.43-13.51c0.12-0.03,0.2-0.14,0.2-0.26c-0.01-0.12-0.1-0.22-0.23-0.24
				c-11.92-1.3-21.75,3.32-28.22,11.92c1.65-4.9,6.37-9.76,12.95-12.62c5.85-2.54,11.85-2.95,16.42-1.51
				c0.11,0.03,0.22-0.01,0.29-0.1C263.82-222.52,263.82-222.65,263.75-222.74z M210.84-147.16c4.81-10.49,4.46-18.69,0.59-29.05
				c-0.04-0.12-0.17-0.18-0.29-0.16c-0.12,0.03-0.21,0.14-0.2,0.26c0.62,12.62-2.83,21.65-10.3,27.81
				c8.25-9.85,4.35-29.56-8.82-29.56c-9.59,0-17.52,7.98-19.46,17.52c-0.03,0.12,0.04,0.24,0.16,0.29c0.12,0.04,0.25,0,0.31-0.11
				c2.84-4.76,7.41-7.85,12.46-7.85c8.13,0,10.54,6.47,10.54,11c0,6.19-4.93,11.34-8.71,11.34c-3.44,0-5.04-2.82-5.04-4.93
				c0-3.9,3-7.17,6.38-8.16c0.12-0.04,0.2-0.15,0.18-0.28c-0.02-0.12-0.12-0.22-0.25-0.22c-4.11-0.03-7.58,1.86-9.63,5.57
				c-0.27-2.88-0.27-4.69,0.64-7.72c0.04-0.12-0.02-0.24-0.12-0.3c-0.11-0.06-0.24-0.03-0.32,0.07c-7.36,9.39-3.84,25.62,1.98,32.36
				c-5.53-3.98-10.42-12.63-10.34-24.39c0-0.12-0.08-0.23-0.21-0.25c-0.12-0.03-0.24,0.04-0.28,0.15
				c-4.11,10.25-1.93,29.25,9.28,39.85c-2.88,0.4-5.87,0.35-9.12-0.69c-0.12-0.04-0.24,0.01-0.3,0.12
				c-0.06,0.11-0.04,0.24,0.06,0.32c4.09,3.46,9.81,4.54,15.27,4.54c-4.7-5.5-3.14-16.55,4.36-16.55c5.35,0,7.78,8.3,3.65,12.78
				c-0.08,0.09-0.09,0.21-0.03,0.31c0.06,0.1,0.19,0.14,0.3,0.1c4.78-1.65,9.95-5.79,9.95-11.02c0-5.04-4.81-9.39-11.8-9.05
				c8.82-2.51,18.05,0.27,22.88,6.25c0.07,0.09,0.21,0.12,0.31,0.07c0.11-0.05,0.16-0.18,0.13-0.29
				c-2.79-10.72-11.97-15.2-23.44-13.71c9.28-3.76,23.25-0.48,29.42,7.31c0.07,0.09,0.2,0.12,0.31,0.07
				c0.11-0.05,0.16-0.17,0.14-0.28C220.1-140.26,216.6-145.21,210.84-147.16z"/>
			<path class="st2" d="M237.23-166.45c-0.02,0.12-0.12,0.21-0.25,0.21c-12.91,0.14-24.75,3.27-33.97,11.52
				c8.03-5.56,22.94-7.51,31.53-3.62c0.11,0.05,0.17,0.17,0.14,0.29c-0.03,0.12-0.13,0.2-0.25,0.2
				c-10.68-0.29-19.28,3.01-25.98,8.96c6.87,0.42,12.57,4.74,12.56,9.85c0,0.12-0.08,0.22-0.2,0.25c-0.12,0.02-0.23-0.04-0.28-0.14
				c-1.12-2.49-4.75-3.78-8.58-2.88c-4.18,0.98-7,4.19-6.3,7.17c0.47,2.01,2.44,3.4,4.95,3.79c0.13,0.02,0.22,0.13,0.22,0.26
				c0,0.13-0.1,0.23-0.23,0.25c-1.07,0.1-2.18,0.11-3.32,0c-6.49-0.62-11.51-4.59-11.95-9.18c-4.71,0.55-8.88,3.16-10.38,6.77
				c-0.04,0.11-0.16,0.17-0.28,0.15c-0.12-0.02-0.2-0.11-0.21-0.23c-0.38-4.75,1.26-7.84,4.97-10.85
				c-5.38,2.06-11.45,2.16-17.26-0.54c-0.11-0.05-0.16-0.17-0.14-0.28c0.02-0.12,0.12-0.2,0.24-0.2c4.88-0.19,8.42-1.76,11.73-5.07
				c-18.26,5.13-33.09-6.2-27.96-23.05c0.04-0.12,0.15-0.19,0.27-0.18s0.22,0.11,0.23,0.23c0.92,9.71,7.7,16.12,17.86,17.08
				c-5.39-2.06-11-6.97-11.56-15.53c-0.01-0.12,0.07-0.23,0.19-0.26c0.12-0.03,0.24,0.03,0.29,0.14c2.8,6.15,8.3,9.26,14.16,9.81
				c-6.33-2.58-10.4-8.6-11.57-16.42c-0.02-0.12,0.05-0.24,0.17-0.28c0.12-0.04,0.25,0.02,0.3,0.13
				c3.87,7.58,12.16,12.79,22.45,8.81c10.62-4.11,15.27-16.38,16.3-25.04c0.02-0.12,0.12-0.22,0.24-0.22
				c0.12-0.01,0.23,0.08,0.26,0.2c3.72,15.69-3.58,31.95-16.64,38.84c7.1-2,13.44-6.26,17.03-13.35c8.29-1.02,14-3.86,16.86-9.24
				c0.06-0.11,0.18-0.16,0.29-0.12c0.12,0.04,0.19,0.15,0.18,0.27c-0.18,2.11-0.94,6.33-4.07,8.27c6.96-0.01,12.51,0.89,17.8,3.01
				C237.18-166.69,237.25-166.57,237.23-166.45z M207.74-219.92c0.1,0.06,0.23,0.05,0.32-0.03c0.09-0.08,0.1-0.21,0.04-0.31
				c-1.62-2.8-0.14-6.81,3.05-6.81c5.72,0,8.47,10.77,7.6,20.59c-2.16-5.75-4.03-8.05-7.35-10.79c-0.09-0.08-0.23-0.08-0.32,0
				c-0.09,0.08-0.12,0.21-0.06,0.32c4.86,9.08,5.9,16.06,5.9,24.08c-1.46-5.96-3.2-9.32-8.13-14.38c-0.09-0.09-0.22-0.1-0.32-0.03
				c-0.1,0.07-0.14,0.2-0.09,0.31c5.3,11.59,4.89,24.45,0.95,34.26c-0.04,0.1-0.01,0.21,0.06,0.28c0.08,0.07,0.19,0.09,0.29,0.04
				c5.21-2.55,8.26-4.23,12.75-10.39c-1.36-7.4-0.23-11.05,3.17-17.19c-3.94,9.92-1.84,23.89,8.19,29.59
				c0.11,0.06,0.25,0.04,0.32-0.06c0.08-0.1,0.07-0.24-0.02-0.33c-3.78-3.96-6.53-10.63-4.16-17.93
				c-1.53,10.39,7.6,19.11,17.78,19.11c9.6,0,16.15-7.51,15.61-14.94c-0.54-7.37-5.44-10.97-9.67-12.5c-0.11-0.04-0.24,0-0.3,0.1
				c-0.06,0.1-0.05,0.23,0.03,0.31c5.61,5.69,6.38,16.49-3.58,19.76c5.86-5.06,3.69-16.83-5.69-17.72
				c-0.12-0.01-0.23,0.06-0.26,0.17c-0.04,0.11,0,0.23,0.1,0.29c2.01,1.28,3.68,3.77,3.68,6.57c0,4.67-3.42,6.51-5.68,6.51
				c-3.42,0-6.26-3.26-6.26-8.18c0-5.84,5.26-10.68,12.02-11.43c6.63-0.74,12.78,2.15,15.75,6.46c0.07,0.1,0.2,0.14,0.31,0.09
				c0.11-0.05,0.17-0.17,0.14-0.29c-3.02-11.7-16.8-16.88-26.89-9.51c6.61-7.5,17.01-7.61,25.72,0.09c0.09,0.08,0.22,0.09,0.32,0.01
				c0.1-0.07,0.13-0.21,0.07-0.31c-2.67-5.41-9.25-11.82-18.61-10.88c-8.56,0.86-13.52,9.02-14.52,15.69
				c-0.56-8.52,1.39-14.54,8.75-20.14c0.1-0.07,0.13-0.21,0.07-0.32s-0.18-0.16-0.3-0.13c-6.79,1.96-12.23,5.42-15.05,12.54
				c0-6.16,2.14-12.37,7.53-16.51c0.1-0.07,0.13-0.21,0.07-0.32c-0.05-0.11-0.18-0.16-0.29-0.13c-3.45,0.98-6.17,2.49-8.14,5.18
				c-1.31-11.1-6.52-17.69-12.53-17.69c-4.12,0-7.21,3.03-7.21,7.87C202.93-226.11,204.42-222.14,207.74-219.92z M108.51-128.3
				c3.16,3.9,9.54,5.39,16.43,3.99c-0.51,4.3,0.33,8.79,1.61,11.49c0.05,0.11,0.17,0.17,0.29,0.14c0.12-0.03,0.2-0.14,0.19-0.26
				c-0.38-8.77,4.62-15.84,13.45-18.91c-6.91,4.76-8.93,14.19-5.64,19.06c0.07,0.1,0.2,0.14,0.31,0.09
				c0.11-0.04,0.18-0.16,0.15-0.28c-0.37-2.06,0.61-4.68,2.71-6.72c2.91-2.81,6.85-3.45,8.81-1.43c1.96,2.03,1.2,5.95-1.71,8.76
				c-1.06,1.03-2.26,1.76-3.45,2.19c-0.11,0.04-0.18,0.15-0.17,0.27c0.01,0.12,0.11,0.21,0.23,0.22c6.39,0.55,10.77-3.25,13.52-7.88
				c2.79-4.71,7.57-8.41,13.21-7.67c0.12,0.02,0.23-0.05,0.27-0.17c0.04-0.11-0.01-0.24-0.11-0.3c-2.8-1.68-5.87-2.38-9.86-1.05
				c5.79-4.91,14.05-7.74,21.84-5.23c0.11,0.04,0.23-0.01,0.29-0.1c0.06-0.1,0.05-0.22-0.03-0.31c-5.91-6.56-17.69-6.7-25.11-1.37
				c3.04-4.32,7.07-7.49,14.29-8.48c0.12-0.02,0.21-0.11,0.22-0.22c0.01-0.12-0.05-0.22-0.16-0.27c-8.29-3.08-16.6,0.04-23.45,8.22
				c2.99-6.38,7.91-11.49,14.77-14.01c0.12-0.04,0.18-0.16,0.16-0.28c-0.02-0.12-0.12-0.21-0.24-0.21
				c-3.94-0.08-7.49,0.86-12.26,3.57c3.51-5.69,2.74-15.64-2.37-22.26c-0.07-0.09-0.2-0.12-0.3-0.08c-0.11,0.05-0.17,0.16-0.15,0.28
				c1.18,7.2-1.3,15.33-5.61,19.64c2.15-7.63,0.01-14.58-5.9-19.64c-0.07-0.06-0.17-0.08-0.26-0.04c-0.09,0.03-0.15,0.11-0.16,0.2
				c-1.23,9.42-11.77,18.97-20.6,19.78c-0.12,0.01-0.22,0.11-0.23,0.24c-0.01,0.12,0.07,0.24,0.2,0.26
				c4.28,0.97,8.69,0.49,12.39-1.03c-2.66,2.93-5.94,5.11-9.55,6.24c-0.12,0.04-0.19,0.15-0.18,0.27c0.01,0.12,0.11,0.22,0.23,0.22
				c4.51,0.31,8.92-1.01,12.73-3.54c-4.36,6.62-10.98,11.54-19.43,13.51c-0.12,0.03-0.2,0.14-0.2,0.26c0.01,0.12,0.1,0.22,0.23,0.24
				c11.92,1.3,21.75-3.32,28.22-11.92c-1.65,4.9-6.37,9.76-12.95,12.62c-5.85,2.54-11.85,2.95-16.42,1.51
				c-0.11-0.03-0.22,0.01-0.29,0.1C108.44-128.51,108.44-128.39,108.51-128.3z M161.42-203.87c-4.81,10.49-4.46,18.69-0.59,29.05
				c0.04,0.12,0.17,0.19,0.29,0.16c0.12-0.03,0.21-0.14,0.2-0.26c-0.62-12.62,2.83-21.65,10.3-27.81
				c-8.25,9.85-4.35,29.56,8.82,29.56c9.59,0,17.52-7.98,19.46-17.53c0.03-0.12-0.04-0.24-0.16-0.29c-0.12-0.04-0.25,0-0.31,0.11
				c-2.84,4.76-7.41,7.85-12.46,7.85c-8.13,0-10.54-6.47-10.54-11c0-6.19,4.93-11.34,8.71-11.34c3.44,0,5.04,2.82,5.04,4.93
				c0,3.9-3,7.17-6.38,8.16c-0.12,0.04-0.2,0.15-0.18,0.28c0.02,0.12,0.12,0.22,0.25,0.22c4.11,0.03,7.58-1.85,9.63-5.57
				c0.27,2.88,0.27,4.69-0.64,7.72c-0.04,0.12,0.02,0.24,0.12,0.3c0.11,0.05,0.24,0.03,0.32-0.07c7.36-9.39,3.84-25.62-1.98-32.36
				c5.53,3.98,10.42,12.63,10.34,24.39c0,0.12,0.08,0.23,0.21,0.25c0.12,0.02,0.24-0.04,0.28-0.15c4.11-10.25,1.93-29.25-9.28-39.85
				c2.88-0.4,5.87-0.35,9.12,0.69c0.12,0.04,0.24-0.01,0.3-0.12c0.06-0.11,0.04-0.24-0.06-0.32c-4.09-3.46-9.81-4.54-15.27-4.54
				c4.7,5.5,3.14,16.55-4.35,16.55c-5.35,0-7.78-8.3-3.65-12.78c0.08-0.09,0.09-0.21,0.03-0.31c-0.06-0.1-0.19-0.14-0.3-0.1
				c-4.78,1.66-9.95,5.79-9.95,11.02c0,5.04,4.81,9.39,11.8,9.05c-8.82,2.5-18.05-0.27-22.88-6.25c-0.07-0.09-0.21-0.12-0.31-0.07
				c-0.11,0.05-0.16,0.17-0.13,0.29c2.79,10.71,11.97,15.2,23.44,13.71c-9.28,3.76-23.25,0.48-29.42-7.31
				c-0.07-0.09-0.2-0.12-0.31-0.07c-0.11,0.05-0.16,0.17-0.14,0.28C152.17-210.77,155.66-205.83,161.42-203.87z"/>
		</g>
		<g>
			<path class="st1" d="M26.7-184.59c0.02-0.12,0.12-0.21,0.25-0.21c12.91-0.13,24.75-3.27,33.97-11.51
				c-8.03,5.56-22.94,7.51-31.53,3.62c-0.11-0.05-0.17-0.17-0.14-0.29c0.03-0.12,0.13-0.2,0.25-0.2
				c10.68,0.29,19.28-3.01,25.98-8.96c-6.87-0.42-12.57-4.74-12.56-9.84c0-0.12,0.08-0.22,0.2-0.25c0.12-0.03,0.23,0.04,0.28,0.14
				c1.12,2.49,4.75,3.78,8.58,2.88c4.18-0.98,7-4.19,6.3-7.17c-0.47-2.01-2.44-3.4-4.95-3.79c-0.13-0.02-0.22-0.13-0.22-0.26
				c0-0.13,0.1-0.23,0.23-0.25c1.07-0.1,2.18-0.11,3.32,0c6.49,0.62,11.51,4.6,11.95,9.18c4.71-0.55,8.88-3.16,10.38-6.77
				c0.04-0.11,0.16-0.17,0.28-0.15c0.12,0.02,0.2,0.11,0.21,0.23c0.38,4.75-1.26,7.84-4.97,10.85c5.38-2.06,11.45-2.17,17.26,0.54
				c0.11,0.05,0.16,0.16,0.14,0.28c-0.02,0.12-0.12,0.2-0.24,0.2c-4.88,0.19-8.42,1.76-11.73,5.07c18.25-5.13,33.09,6.2,27.95,23.05
				c-0.04,0.12-0.15,0.19-0.27,0.18c-0.12-0.01-0.22-0.11-0.23-0.23c-0.92-9.71-7.7-16.12-17.86-17.08
				c5.39,2.06,11,6.98,11.56,15.53c0.01,0.12-0.07,0.23-0.19,0.26c-0.12,0.03-0.24-0.03-0.29-0.14c-2.8-6.15-8.3-9.27-14.16-9.81
				c6.33,2.58,10.4,8.6,11.57,16.42c0.02,0.12-0.05,0.24-0.17,0.28c-0.12,0.04-0.25-0.02-0.3-0.12
				c-3.87-7.58-12.16-12.79-22.45-8.81c-10.62,4.11-15.27,16.39-16.3,25.04c-0.02,0.12-0.12,0.21-0.24,0.22
				c-0.12,0.01-0.23-0.07-0.26-0.2c-3.72-15.69,3.58-31.95,16.64-38.84c-7.1,2-13.44,6.26-17.03,13.35
				c-8.29,1.02-14,3.86-16.86,9.24c-0.06,0.11-0.18,0.16-0.29,0.12c-0.12-0.03-0.19-0.14-0.18-0.27c0.18-2.11,0.94-6.33,4.07-8.27
				c-6.97,0.01-12.51-0.89-17.8-3.01C26.74-184.35,26.67-184.47,26.7-184.59z M56.18-131.12c-0.1-0.07-0.23-0.05-0.32,0.03
				c-0.09,0.08-0.1,0.21-0.04,0.31c1.62,2.8,0.14,6.81-3.05,6.81c-5.72,0-8.47-10.77-7.6-20.59c2.16,5.76,4.03,8.05,7.35,10.79
				c0.09,0.08,0.23,0.08,0.32,0c0.09-0.08,0.12-0.21,0.06-0.32c-4.86-9.08-5.9-16.07-5.9-24.09c1.46,5.96,3.2,9.32,8.13,14.38
				c0.09,0.09,0.22,0.1,0.32,0.03c0.1-0.07,0.14-0.2,0.09-0.32c-5.3-11.59-4.89-24.45-0.95-34.26c0.04-0.1,0.01-0.21-0.06-0.28
				c-0.08-0.07-0.19-0.09-0.29-0.04c-5.21,2.55-8.26,4.23-12.75,10.39c1.36,7.4,0.23,11.05-3.17,17.2
				c3.94-9.92,1.84-23.89-8.19-29.59c-0.11-0.06-0.25-0.03-0.32,0.06c-0.08,0.1-0.07,0.24,0.02,0.33
				c3.78,3.96,6.53,10.63,4.16,17.93c1.53-10.39-7.6-19.12-17.78-19.12c-9.6,0-16.15,7.51-15.61,14.94
				c0.54,7.37,5.44,10.97,9.67,12.5c0.11,0.04,0.24,0,0.3-0.1c0.06-0.1,0.05-0.23-0.03-0.32c-5.61-5.69-6.38-16.49,3.58-19.76
				c-5.86,5.06-3.69,16.83,5.69,17.72c0.12,0.01,0.23-0.06,0.26-0.17c0.04-0.11,0-0.23-0.1-0.3c-2.01-1.28-3.68-3.77-3.68-6.57
				c0-4.67,3.42-6.51,5.68-6.51c3.42,0,6.26,3.26,6.26,8.18c0,5.84-5.26,10.68-12.02,11.44c-6.63,0.73-12.78-2.15-15.75-6.46
				c-0.07-0.1-0.2-0.14-0.31-0.09c-0.11,0.05-0.17,0.18-0.14,0.29c3.02,11.7,16.8,16.88,26.89,9.51c-6.61,7.5-17.01,7.61-25.72-0.09
				c-0.09-0.08-0.23-0.08-0.32-0.01c-0.1,0.07-0.13,0.21-0.07,0.31c2.67,5.41,9.25,11.82,18.61,10.88
				c8.56-0.86,13.52-9.01,14.52-15.69c0.56,8.52-1.39,14.54-8.75,20.15c-0.1,0.07-0.13,0.21-0.07,0.32c0.05,0.11,0.18,0.16,0.3,0.13
				c6.79-1.96,12.23-5.43,15.05-12.54c0,6.16-2.14,12.37-7.53,16.51c-0.1,0.07-0.13,0.21-0.07,0.31c0.05,0.11,0.18,0.16,0.3,0.13
				c3.45-0.98,6.17-2.49,8.14-5.19c1.31,11.1,6.52,17.69,12.53,17.69c4.12,0,7.21-3.03,7.21-7.87
				C60.99-124.93,59.51-128.9,56.18-131.12z M155.41-222.74c-3.16-3.9-9.54-5.39-16.43-3.99c0.51-4.3-0.33-8.79-1.61-11.48
				c-0.05-0.11-0.17-0.17-0.29-0.14c-0.12,0.03-0.2,0.14-0.19,0.26c0.38,8.77-4.62,15.84-13.45,18.91
				c6.91-4.76,8.93-14.19,5.64-19.07c-0.07-0.1-0.2-0.14-0.31-0.09c-0.11,0.04-0.18,0.16-0.15,0.28c0.37,2.06-0.61,4.68-2.71,6.73
				c-2.91,2.81-6.85,3.45-8.81,1.43c-1.96-2.03-1.2-5.95,1.71-8.76c1.06-1.03,2.26-1.76,3.45-2.18c0.11-0.04,0.18-0.15,0.17-0.27
				c-0.01-0.12-0.11-0.21-0.23-0.22c-6.39-0.55-10.77,3.25-13.52,7.88c-2.79,4.71-7.57,8.41-13.21,7.67
				c-0.12-0.02-0.23,0.05-0.27,0.17c-0.04,0.11,0.01,0.24,0.11,0.3c2.8,1.68,5.87,2.38,9.86,1.05c-5.79,4.91-14.05,7.74-21.84,5.23
				c-0.11-0.04-0.23,0.01-0.29,0.1c-0.06,0.1-0.05,0.22,0.03,0.31c5.91,6.56,17.69,6.7,25.11,1.37c-3.04,4.32-7.07,7.48-14.29,8.48
				c-0.12,0.02-0.21,0.11-0.22,0.22c-0.01,0.12,0.05,0.23,0.16,0.27c8.29,3.08,16.6-0.04,23.45-8.21
				c-2.99,6.38-7.91,11.48-14.77,14.01c-0.12,0.04-0.18,0.16-0.16,0.28c0.02,0.12,0.12,0.21,0.24,0.21
				c3.94,0.08,7.49-0.86,12.27-3.57c-3.51,5.69-2.74,15.64,2.37,22.26c0.07,0.09,0.2,0.12,0.3,0.08c0.11-0.05,0.17-0.16,0.15-0.27
				c-1.18-7.2,1.3-15.33,5.61-19.64c-2.15,7.63-0.01,14.58,5.9,19.64c0.07,0.06,0.17,0.08,0.26,0.04c0.09-0.03,0.15-0.11,0.16-0.2
				c1.23-9.42,11.77-18.97,20.6-19.78c0.12-0.01,0.22-0.11,0.23-0.24c0.01-0.12-0.07-0.24-0.2-0.26c-4.28-0.97-8.69-0.49-12.39,1.03
				c2.66-2.93,5.94-5.11,9.55-6.25c0.12-0.04,0.19-0.15,0.18-0.27c-0.01-0.12-0.11-0.21-0.23-0.22c-4.51-0.31-8.92,1.01-12.73,3.54
				c4.36-6.62,10.98-11.54,19.43-13.51c0.12-0.03,0.2-0.14,0.2-0.26c-0.01-0.12-0.1-0.22-0.23-0.24
				c-11.92-1.3-21.75,3.32-28.22,11.92c1.65-4.9,6.37-9.76,12.95-12.62c5.85-2.54,11.85-2.95,16.42-1.51
				c0.11,0.03,0.22-0.01,0.29-0.1C155.48-222.52,155.48-222.65,155.41-222.74z M102.51-147.16c4.81-10.49,4.46-18.69,0.59-29.05
				c-0.04-0.12-0.17-0.18-0.29-0.16c-0.12,0.03-0.21,0.14-0.2,0.26c0.62,12.62-2.83,21.65-10.3,27.81
				c8.25-9.85,4.35-29.56-8.82-29.56c-9.59,0-17.52,7.98-19.46,17.52c-0.03,0.12,0.04,0.24,0.16,0.29c0.12,0.04,0.25,0,0.31-0.11
				c2.84-4.76,7.41-7.85,12.46-7.85c8.13,0,10.54,6.47,10.54,11c0,6.19-4.93,11.34-8.71,11.34c-3.44,0-5.04-2.82-5.04-4.93
				c0-3.9,3-7.17,6.38-8.16c0.12-0.04,0.2-0.15,0.18-0.28c-0.02-0.12-0.12-0.22-0.25-0.22c-4.11-0.03-7.58,1.86-9.63,5.57
				c-0.27-2.88-0.27-4.69,0.64-7.72c0.04-0.12-0.02-0.24-0.12-0.3c-0.11-0.06-0.24-0.03-0.32,0.07c-7.36,9.39-3.84,25.62,1.98,32.36
				c-5.53-3.98-10.42-12.63-10.34-24.39c0-0.12-0.08-0.23-0.21-0.25c-0.12-0.03-0.24,0.04-0.28,0.15
				c-4.11,10.25-1.93,29.25,9.28,39.85c-2.88,0.4-5.87,0.35-9.12-0.69c-0.12-0.04-0.24,0.01-0.3,0.12
				c-0.06,0.11-0.04,0.24,0.06,0.32c4.09,3.46,9.81,4.54,15.27,4.54c-4.7-5.5-3.14-16.55,4.36-16.55c5.35,0,7.78,8.3,3.65,12.78
				c-0.08,0.09-0.09,0.21-0.03,0.31c0.06,0.1,0.19,0.14,0.3,0.1c4.78-1.65,9.95-5.79,9.95-11.02c0-5.04-4.81-9.39-11.8-9.05
				c8.82-2.51,18.05,0.27,22.88,6.25c0.07,0.09,0.21,0.12,0.31,0.07c0.11-0.05,0.16-0.18,0.13-0.29
				c-2.79-10.72-11.97-15.2-23.44-13.71c9.28-3.76,23.25-0.48,29.42,7.31c0.07,0.09,0.2,0.12,0.31,0.07
				c0.11-0.05,0.16-0.17,0.14-0.28C111.76-140.26,108.27-145.21,102.51-147.16z"/>
			<path class="st2" d="M128.89-166.45c-0.02,0.12-0.12,0.21-0.25,0.21c-12.91,0.14-24.75,3.27-33.97,11.52
				c8.03-5.56,22.94-7.51,31.53-3.62c0.11,0.05,0.17,0.17,0.14,0.29c-0.03,0.12-0.13,0.2-0.25,0.2
				c-10.68-0.29-19.28,3.01-25.98,8.96c6.87,0.42,12.57,4.74,12.56,9.85c0,0.12-0.08,0.22-0.2,0.25c-0.12,0.02-0.23-0.04-0.28-0.14
				c-1.12-2.49-4.75-3.78-8.58-2.88c-4.18,0.98-7,4.19-6.3,7.17c0.47,2.01,2.44,3.4,4.95,3.79c0.13,0.02,0.22,0.13,0.22,0.26
				c0,0.13-0.1,0.23-0.23,0.25c-1.07,0.1-2.18,0.11-3.32,0c-6.49-0.62-11.51-4.59-11.95-9.18c-4.71,0.55-8.88,3.16-10.38,6.77
				c-0.04,0.11-0.16,0.17-0.28,0.15c-0.12-0.02-0.2-0.11-0.21-0.23c-0.38-4.75,1.26-7.84,4.97-10.85
				c-5.38,2.06-11.45,2.16-17.26-0.54c-0.11-0.05-0.16-0.17-0.14-0.28c0.02-0.12,0.12-0.2,0.24-0.2c4.88-0.19,8.42-1.76,11.73-5.07
				c-18.26,5.13-33.09-6.2-27.95-23.05c0.04-0.12,0.15-0.19,0.27-0.18c0.12,0.01,0.22,0.11,0.23,0.23
				c0.92,9.71,7.7,16.12,17.86,17.08c-5.39-2.06-11-6.97-11.56-15.53c-0.01-0.12,0.07-0.23,0.19-0.26c0.12-0.03,0.24,0.03,0.29,0.14
				c2.8,6.15,8.3,9.26,14.16,9.81c-6.33-2.58-10.4-8.6-11.57-16.42c-0.02-0.12,0.05-0.24,0.17-0.28c0.12-0.04,0.25,0.02,0.3,0.13
				c3.87,7.58,12.16,12.79,22.45,8.81c10.62-4.11,15.27-16.38,16.3-25.04c0.02-0.12,0.12-0.22,0.24-0.22
				c0.12-0.01,0.23,0.08,0.26,0.2c3.72,15.69-3.58,31.95-16.64,38.84c7.1-2,13.44-6.26,17.03-13.35c8.29-1.02,14-3.86,16.86-9.24
				c0.06-0.11,0.18-0.16,0.29-0.12c0.12,0.04,0.19,0.15,0.18,0.27c-0.18,2.11-0.94,6.33-4.07,8.27c6.96-0.01,12.51,0.89,17.8,3.01
				C128.85-166.69,128.91-166.57,128.89-166.45z M99.4-219.92c0.1,0.06,0.23,0.05,0.32-0.03c0.09-0.08,0.1-0.21,0.04-0.31
				c-1.62-2.8-0.14-6.81,3.05-6.81c5.72,0,8.47,10.77,7.6,20.59c-2.16-5.75-4.03-8.05-7.35-10.79c-0.09-0.08-0.23-0.08-0.32,0
				c-0.09,0.08-0.12,0.21-0.06,0.32c4.86,9.08,5.9,16.06,5.9,24.08c-1.46-5.96-3.2-9.32-8.13-14.38c-0.09-0.09-0.22-0.1-0.32-0.03
				c-0.1,0.07-0.14,0.2-0.09,0.31c5.3,11.59,4.89,24.45,0.95,34.26c-0.04,0.1-0.01,0.21,0.06,0.28c0.08,0.07,0.19,0.09,0.29,0.04
				c5.21-2.55,8.26-4.23,12.75-10.39c-1.36-7.4-0.23-11.05,3.17-17.19c-3.94,9.92-1.84,23.89,8.19,29.59
				c0.11,0.06,0.25,0.04,0.32-0.06c0.08-0.1,0.07-0.24-0.02-0.33c-3.78-3.96-6.53-10.63-4.16-17.93
				c-1.53,10.39,7.6,19.11,17.78,19.11c9.6,0,16.15-7.51,15.61-14.94c-0.54-7.37-5.44-10.97-9.67-12.5c-0.11-0.04-0.24,0-0.3,0.1
				c-0.06,0.1-0.05,0.23,0.03,0.31c5.61,5.69,6.38,16.49-3.58,19.76c5.86-5.06,3.69-16.83-5.69-17.72
				c-0.12-0.01-0.23,0.06-0.26,0.17c-0.04,0.11,0,0.23,0.1,0.29c2.01,1.28,3.68,3.77,3.68,6.57c0,4.67-3.42,6.51-5.68,6.51
				c-3.42,0-6.26-3.26-6.26-8.18c0-5.84,5.26-10.68,12.02-11.43c6.63-0.74,12.78,2.15,15.75,6.46c0.07,0.1,0.2,0.14,0.31,0.09
				c0.11-0.05,0.17-0.17,0.14-0.29c-3.02-11.7-16.8-16.88-26.89-9.51c6.61-7.5,17.01-7.61,25.72,0.09c0.09,0.08,0.22,0.09,0.32,0.01
				c0.1-0.07,0.13-0.21,0.07-0.31c-2.67-5.41-9.25-11.82-18.61-10.88c-8.56,0.86-13.52,9.02-14.52,15.69
				c-0.56-8.52,1.39-14.54,8.75-20.14c0.1-0.07,0.13-0.21,0.07-0.32c-0.05-0.11-0.18-0.16-0.3-0.13
				c-6.79,1.96-12.23,5.42-15.05,12.54c0-6.16,2.14-12.37,7.53-16.51c0.1-0.07,0.13-0.21,0.07-0.32c-0.05-0.11-0.18-0.16-0.29-0.13
				c-3.45,0.98-6.17,2.49-8.14,5.18c-1.31-11.1-6.52-17.69-12.53-17.69c-4.12,0-7.21,3.03-7.21,7.87
				C94.59-226.11,96.08-222.14,99.4-219.92z M0.17-128.3c3.16,3.9,9.54,5.39,16.43,3.99c-0.51,4.3,0.33,8.79,1.61,11.49
				c0.05,0.11,0.17,0.17,0.29,0.14c0.12-0.03,0.2-0.14,0.19-0.26c-0.38-8.77,4.62-15.84,13.45-18.91
				c-6.91,4.76-8.93,14.19-5.64,19.06c0.07,0.1,0.2,0.14,0.31,0.09c0.11-0.04,0.18-0.16,0.15-0.28c-0.37-2.06,0.61-4.68,2.71-6.72
				c2.91-2.81,6.85-3.45,8.81-1.43c1.96,2.03,1.2,5.95-1.71,8.76c-1.06,1.03-2.26,1.76-3.45,2.19c-0.11,0.04-0.18,0.15-0.17,0.27
				c0.01,0.12,0.11,0.21,0.23,0.22c6.39,0.55,10.77-3.25,13.52-7.88c2.8-4.71,7.57-8.41,13.21-7.67c0.12,0.02,0.23-0.05,0.27-0.17
				c0.04-0.11-0.01-0.24-0.11-0.3c-2.8-1.68-5.87-2.38-9.86-1.05c5.79-4.91,14.05-7.74,21.84-5.23c0.11,0.04,0.23-0.01,0.29-0.1
				c0.06-0.1,0.05-0.22-0.03-0.31c-5.91-6.56-17.69-6.7-25.11-1.37c3.04-4.32,7.07-7.49,14.29-8.48c0.12-0.02,0.21-0.11,0.22-0.22
				c0.01-0.12-0.05-0.22-0.16-0.27c-8.29-3.08-16.6,0.04-23.45,8.22c2.99-6.38,7.91-11.49,14.77-14.01
				c0.12-0.04,0.18-0.16,0.16-0.28c-0.02-0.12-0.12-0.21-0.24-0.21c-3.94-0.08-7.49,0.86-12.27,3.57
				c3.51-5.69,2.74-15.64-2.37-22.26c-0.07-0.09-0.2-0.12-0.3-0.08c-0.11,0.05-0.17,0.16-0.15,0.28c1.18,7.2-1.3,15.33-5.61,19.64
				c2.15-7.63,0.01-14.58-5.9-19.64c-0.07-0.06-0.17-0.08-0.26-0.04c-0.09,0.03-0.15,0.11-0.16,0.2
				c-1.23,9.42-11.77,18.97-20.6,19.78c-0.12,0.01-0.22,0.11-0.23,0.24c-0.01,0.12,0.07,0.24,0.2,0.26
				c4.28,0.97,8.69,0.49,12.39-1.03c-2.66,2.93-5.94,5.11-9.55,6.24c-0.12,0.04-0.19,0.15-0.18,0.27c0.01,0.12,0.11,0.22,0.23,0.22
				c4.51,0.31,8.92-1.01,12.73-3.54c-4.36,6.62-10.98,11.54-19.43,13.51c-0.12,0.03-0.2,0.14-0.2,0.26c0.01,0.12,0.1,0.22,0.23,0.24
				c11.92,1.3,21.75-3.32,28.22-11.92c-1.65,4.9-6.37,9.76-12.95,12.62c-5.85,2.54-11.85,2.95-16.42,1.51
				c-0.11-0.03-0.22,0.01-0.29,0.1C0.1-128.51,0.1-128.39,0.17-128.3z M53.08-203.87c-4.81,10.49-4.46,18.69-0.59,29.05
				c0.04,0.12,0.17,0.19,0.29,0.16c0.12-0.03,0.21-0.14,0.2-0.26c-0.62-12.62,2.83-21.65,10.3-27.81
				c-8.25,9.85-4.35,29.56,8.82,29.56c9.59,0,17.52-7.98,19.46-17.53c0.03-0.12-0.04-0.24-0.16-0.29c-0.12-0.04-0.25,0-0.31,0.11
				c-2.84,4.76-7.41,7.85-12.46,7.85c-8.13,0-10.54-6.47-10.54-11c0-6.19,4.93-11.34,8.71-11.34c3.44,0,5.04,2.82,5.04,4.93
				c0,3.9-3,7.17-6.38,8.16c-0.12,0.04-0.2,0.15-0.18,0.28s0.12,0.22,0.25,0.22c4.11,0.03,7.58-1.85,9.63-5.57
				c0.27,2.88,0.27,4.69-0.64,7.72c-0.04,0.12,0.02,0.24,0.12,0.3c0.11,0.05,0.24,0.03,0.32-0.07c7.36-9.39,3.84-25.62-1.98-32.36
				c5.53,3.98,10.42,12.63,10.34,24.39c0,0.12,0.08,0.23,0.21,0.25c0.12,0.02,0.24-0.04,0.28-0.15c4.11-10.25,1.93-29.25-9.28-39.85
				c2.88-0.4,5.87-0.35,9.12,0.69c0.12,0.04,0.24-0.01,0.3-0.12c0.06-0.11,0.04-0.24-0.06-0.32c-4.09-3.46-9.81-4.54-15.27-4.54
				c4.7,5.5,3.14,16.55-4.35,16.55c-5.35,0-7.78-8.3-3.65-12.78c0.08-0.09,0.09-0.21,0.03-0.31c-0.06-0.1-0.19-0.14-0.3-0.1
				c-4.78,1.66-9.95,5.79-9.95,11.02c0,5.04,4.81,9.39,11.8,9.05c-8.82,2.5-18.05-0.27-22.88-6.25c-0.07-0.09-0.21-0.12-0.31-0.07
				c-0.11,0.05-0.16,0.17-0.13,0.29c2.79,10.71,11.97,15.2,23.44,13.71c-9.28,3.76-23.25,0.48-29.42-7.31
				c-0.07-0.09-0.2-0.12-0.31-0.07c-0.11,0.05-0.16,0.17-0.14,0.28C43.83-210.77,47.32-205.83,53.08-203.87z"/>
		</g>
	</g>
</pattern>
<ellipse class="st3" cx="701" cy="295.5" rx="450" ry="197.5"/>
<ellipse cx="695" cy="294" rx="407" ry="163"/>
<circle cx="832.5" cy="294.5" r="14.5"/>
<ellipse class="st4" cx="695.5" cy="293" rx="373.5" ry="138"/>
<rect x="435.08" y="247.08" class="st0" width="521.79" height="120.51"/>
<text transform="matrix(1 0 0 1 491.1758 316.5278)" class="st5 st6">Lindsay </text>
<polygon points="402.62,320.62 385.78,311.44 368.67,320.1 372.2,301.25 358.68,287.66 377.69,285.19 386.44,268.13 394.66,285.45 
	413.59,288.5 399.66,301.67 "/>
<polygon points="862.2,230.91 845.36,221.73 828.26,230.39 831.79,211.55 818.26,197.96 837.27,195.49 846.02,178.42 854.24,195.74 
	873.18,198.79 859.24,211.96 "/>
<polygon points="637.2,214.91 620.36,205.73 603.26,214.39 606.79,195.55 593.26,181.96 612.27,179.49 621.02,162.42 629.24,179.74 
	648.18,182.79 634.24,195.96 "/>
<polygon points="637.2,404.91 620.36,395.73 603.26,404.39 606.79,385.55 593.26,371.96 612.27,369.49 621.02,352.42 629.24,369.74 
	648.18,372.79 634.24,385.96 "/>
<polygon points="756.2,393.91 739.36,384.73 722.26,393.39 725.79,374.55 712.26,360.96 731.27,358.49 740.02,341.42 748.24,358.74 
	767.18,361.79 753.24,374.96 "/>
<polygon points="958.2,252.91 941.36,243.73 924.26,252.39 927.79,233.55 914.26,219.96 933.27,217.49 942.02,200.42 950.24,217.74 
	969.18,220.79 955.24,233.96 "/>
<polygon points="497.2,388.91 480.36,379.73 463.26,388.39 466.79,369.55 453.26,355.96 472.27,353.49 481.02,336.42 489.24,353.74 
	508.18,356.79 494.24,369.96 "/>
<polygon points="985.2,362.91 968.36,353.73 951.26,362.39 954.79,343.55 941.26,329.96 960.27,327.49 969.02,310.42 977.24,327.74 
	996.18,330.79 982.24,343.96 "/>
<polygon points="747.2,222.91 730.36,213.73 713.26,222.39 716.79,203.55 703.26,189.96 722.27,187.49 731.02,170.42 739.24,187.74 
	758.18,190.79 744.24,203.96 "/>
<polygon points="487.2,248.91 470.36,239.73 453.26,248.39 456.79,229.55 443.26,215.96 462.27,213.49 471.02,196.42 479.24,213.74 
	498.18,216.79 484.24,229.96 "/>
<polygon points="876.2,404.91 859.36,395.73 842.26,404.39 845.79,385.55 832.26,371.96 851.27,369.49 860.02,352.42 868.24,369.74 
	887.18,372.79 873.24,385.96 "/>
<polygon points="1040.2,305.91 1023.36,296.73 1006.26,305.39 1009.79,286.55 996.26,272.96 1015.27,270.49 1024.02,253.42 
	1032.24,270.74 1051.18,273.79 1037.24,286.96 "/>
<text transform="matrix(1 0 0 1 507.6372 316.8716)" class="st7 st5 st6">Lindsay</text>
</svg>
